Coordinates
version=1
nRows=19
nColumns=24
inDegrees=yes

Units are S.I. units (second, meters, Newtons, ...)
Angles are in degrees.

endheader
time	pelvis_tilt	pelvis_list	pelvis_rotation	pelvis_tx	pelvis_ty	pelvis_tz	hip_flexion_r	hip_adduction_r	hip_rotation_r	knee_angle_r	ankle_angle_r	subtalar_angle_r	mtp_angle_r	hip_flexion_l	hip_adduction_l	hip_rotation_l	knee_angle_l	ankle_angle_l	subtalar_angle_l	mtp_angle_l	lumbar_extension	lumbar_bending	lumbar_rotation
      0.95000000	     -4.45524605	      0.89139166	      8.36863183	      0.45723809	      1.02956853	      1.46182919	     -8.22630851	      1.74342776	    -13.27077430	     -9.16572930	     13.02122610	     17.32181681	    -42.76405014	     24.76795481	     -0.74383489	      4.36203298	    -14.59910170	      3.11974306	     13.71066932	    -42.71953835	     -7.76803638	      0.57600155	     -4.29676171
      0.96000000	     -4.41295330	      0.77306771	      8.09844439	      0.45700876	      1.02815074	      1.46142883	     -8.99945168	      1.84642047	    -13.20523539	     -9.19553596	     12.95234637	     17.67682143	    -42.90037467	     25.07566588	     -0.96574401	      2.73339553	    -12.92467553	      3.63095000	     15.22222983	    -42.85146432	     -7.85903814	      0.66180654	     -4.05678154
      0.97000000	     -4.34253425	      0.70748628	      7.81970597	      0.45698982	      1.02674940	      1.46097652	     -9.78927698	      1.87599596	    -13.12054745	     -9.29475132	     12.93276249	     18.00126139	    -43.10994838	     25.31296763	     -1.10739083	      0.99879885	    -11.47830688	      4.21571373	     16.87732663	    -43.03062001	     -7.97442835	      0.68069150	     -3.83124769
      0.98000000	     -4.32057645	      0.63093845	      7.51101832	      0.45714071	      1.02526738	      1.46050675	    -10.48027386	      1.87842252	    -12.98754488	     -9.49334028	     12.90817850	     18.34182242	    -43.43301094	     25.60043826	     -1.23731591	     -0.79840428	    -10.35207559	      4.91689141	     18.65180190	    -43.25026665	     -8.01817525	      0.69228158	     -3.56760907
      0.99000000	     -4.33519498	      0.55066750	      7.18690023	      0.45748576	      1.02372719	      1.45999493	    -11.09385753	      1.85276616	    -12.82500905	     -9.77270719	     12.81361478	     18.60156044	    -43.97950408	     25.88502533	     -1.33665769	     -2.46299318	     -9.49534849	      5.61668377	     20.29866464	    -43.53919573	     -8.00290531	      0.69219240	     -3.28046242
      1.00000000	     -4.29068314	      0.52017174	      6.87022344	      0.45808744	      1.02222439	      1.45942131	    -11.75618129	      1.76408233	    -12.62304242	    -10.12565131	     12.78221215	     18.82262479	    -44.58401242	     26.00104632	     -1.34666049	     -3.75758408	     -8.82809835	      6.28104966	     21.59956729	    -43.77014845	     -8.03771157	      0.63070364	     -3.02014006
      1.01000000	     -4.25829680	      0.50905257	      6.54667951	      0.45891023	      1.02067848	      1.45879448	    -12.37197976	      1.63158549	    -12.33002581	    -10.56490132	     12.75383441	     18.97383332	    -45.29229218	     26.03160977	     -1.29960514	     -4.60322993	     -8.36511011	      6.83202355	     22.45653629	    -43.93337362	     -8.03769416	      0.53575894	     -2.76445060
      1.02000000	     -4.31036678	      0.50122113	      6.20668384	      0.45993284	      1.01900442	      1.45813063	    -12.85600166	      1.46350892	    -11.95808074	    -11.08403312	     12.58508228	     19.12024159	    -45.48012599	     26.02111740	     -1.19244934	     -4.79028720	     -8.03787380	      7.16316844	     22.44330206	    -43.92406808	     -7.91705366	      0.41351785	     -2.48801253
      1.03000000	     -4.36427427	      0.49616270	      5.86847908	      0.46116194	      1.01730718	      1.45744872	    -13.27398224	      1.29035920	    -11.41977637	    -11.72588293	     12.77313023	     18.78691971	    -48.89576093	     25.91408799	     -1.06486059	     -4.50061997	     -7.89098348	      7.16085047	     22.05209441	    -43.82353138	     -7.77106093	      0.27469395	     -2.22462648
      1.04000000	     -4.36621284	      0.51975218	      5.52849310	      0.46266454	      1.01565045	      1.45672265	    -13.72302264	      1.07177143	    -10.91375575	    -12.41132305	     12.41373900	     18.75951226	    -49.36496724	     25.63490853	     -0.90169351	     -3.86745374	     -7.88424432	      6.80156699	     21.28861802	    -43.65597748	     -7.65374345	      0.10135862	     -1.98130318
      1.05000000	     -4.44421910	      0.54600387	      5.17505645	      0.46429832	      1.01393212	      1.45599654	    -13.97518441	      0.83849827	    -10.24505260	    -13.30286537	     12.10828462	     18.49775122	    -49.84631118	     25.34351323	     -0.71793290	     -2.84890929	     -7.99657753	      6.00954619	     20.02284461	    -43.42776133	     -7.43093439	     -0.09555203	     -1.74132861
      1.06000000	     -4.47514420	      0.61267276	      4.83797560	      0.46614446	      1.01234992	      1.45515749	    -14.20077304	      0.52892460	     -9.73665745	    -14.29091972	     11.61086328	     18.40803423	    -51.39830149	     24.89307507	     -0.46404306	     -1.45664759	     -8.18185016	      4.92756018	     18.21453684	    -42.48196175	     -7.23758763	     -0.32669548	     -1.54543591
      1.07000000	     -4.61875616	      0.64349224	      4.45844406	      0.46802589	      1.01079999	      1.45441036	    -14.16595357	      0.28439161	     -8.82572235	    -15.46351668	     10.93177220	     17.77853752	    -52.14576342	     24.58522198	     -0.28211170	     -0.24979236	     -8.60652185	      3.76356018	     16.44526756	    -41.89476798	     -6.90629566	     -0.53986697	     -1.31129712
      1.08000000	     -4.77046320	      0.75081203	      4.12042550	      0.46998708	      1.00947733	      1.45355518	    -13.96143114	     -0.05976834	     -8.08900446	    -16.87269592	     10.07002001	     17.24348255	    -52.93953776	     24.23670951	     -0.00998899	      0.95788638	     -9.11286159	      2.60279952	     14.62003589	    -41.20164539	     -6.56444121	     -0.82990513	     -1.15210831
      1.09000000	     -4.92108346	      0.89939035	      3.82320668	      0.47195634	      1.00847481	      1.45263632	    -13.58538258	     -0.44422414	     -7.41754127	    -18.50114297	      8.97644505	     16.64597040	    -53.77606137	     23.88073177	      0.29519210	      1.96595366	     -9.73171594	      1.59478958	     12.99800318	    -40.35967083	     -6.23263444	     -1.15559464	     -1.04703293
      1.10000000	     -5.10595389	      1.09217464	      3.58892992	      0.47389678	      1.00780687	      1.45162788	    -12.97546580	     -0.87897706	     -6.87058452	    -20.36500086	      7.77169176	     15.90422331	    -56.42430009	     23.56325997	      0.62719287	      2.63210042	    -10.44362172	      0.62056648	     12.00977637	    -36.37564988	     -5.87724448	     -1.51775987	     -1.01176076
      1.11000000	     -5.26106008	      1.35056250	      3.41306648	      0.47576074	      1.00759923	      1.45055715	    -12.21992136	     -1.35696479	     -6.33625446	    -22.43110199	      6.02515602	     15.16538069	    -56.42289926	     23.20128696	      1.01100053	      3.01476269	    -11.22414858	      0.34933986	     11.24557812	    -36.18286829	     -5.58418082	     -1.93710584	     -1.02682965
      1.12000000	     -5.37782682	      1.62399544	      3.32543018	      0.47751561	      1.00785357	      1.44937511	    -11.31875423	     -1.85353296	     -5.99500227	    -24.67146649	      3.89410126	     14.41867678	    -56.30614749	     22.75155443	      1.42622526	      3.36466591	    -11.97253944	      0.38245526	     10.55965785	    -35.84185062	     -5.36468709	     -2.34901467	     -1.09052436
      1.13000000	     -5.50446376	      1.90228010	      3.32801737	      0.47914574	      1.00848114	      1.44813656	    -10.22445534	     -2.34153183	     -5.72626048	    -27.08210828	      1.49043527	     13.57099587	    -55.95225666	     22.24558940	      1.83617619	      3.51409026	    -12.61805218	      0.71335646	     10.29248699	    -35.47094722	     -5.16195209	     -2.75035827	     -1.23631659
